<svg width="24" height="24" viewBox="0 0 24 24" fill="none" xmlns="http://www.w3.org/2000/svg">
<path d="M15.347 10.711L11.997 14L8.64799 10.71C8.44144 10.5113 8.27712 10.273 8.16488 10.0094C8.05264 9.74568 7.99478 9.46206 7.99478 9.17549C7.99478 8.88891 8.05264 8.60529 8.16488 8.34161C8.27712 8.07794 8.44144 7.83963 8.64799 7.64099C9.06423 7.23005 9.62559 6.99963 10.2105 6.99963C10.7954 6.99963 11.3568 7.23005 11.773 7.64099L11.997 7.85999L12.221 7.64199C12.6374 7.23099 13.1989 7.00055 13.784 7.00055C14.3691 7.00055 14.9306 7.23099 15.347 7.64199C15.5535 7.84063 15.7179 8.07894 15.8301 8.34262C15.9423 8.60629 16.0002 8.88991 16.0002 9.17649C16.0002 9.46306 15.9423 9.74668 15.8301 10.0104C15.7179 10.274 15.5535 10.5123 15.347 10.711Z" fill="black"/>
<path fill-rule="evenodd" clip-rule="evenodd" d="M3 19V5C3 2.799 4.794 2 6 2H19C20.103 2 21 2.897 21 4V18H6.012C5.55 18.012 5 18.194 5 19C5 19.806 5.55 19.988 6.012 20H21V22H6C4.794 22 3 21.201 3 19ZM19 4H6C5.55 4.012 5 4.194 5 5V16H19V4Z" fill="black"/>
</svg>
